<svg xmlns="http://www.w3.org/2000/svg" xmlns:xlink="http://www.w3.org/1999/xlink" width="375" height="317.493" viewBox="0 0 375 317.493">
  <defs>
    <filter id="Ellipse_7" x="240.541" y="37.519" width="47.244" height="47.244" filterUnits="userSpaceOnUse">
      <feOffset dx="10" dy="10" input="SourceAlpha"/>
      <feGaussianBlur stdDeviation="3" result="blur"/>
      <feFlood flood-opacity="0.18"/>
      <feComposite operator="in" in2="blur"/>
      <feComposite in="SourceGraphic"/>
    </filter>
    <filter id="Path_26" x="226.593" y="60.634" width="81.52" height="116.695" filterUnits="userSpaceOnUse">
      <feOffset dy="3" input="SourceAlpha"/>
      <feGaussianBlur stdDeviation="3" result="blur-2"/>
      <feFlood flood-opacity="0.078"/>
      <feComposite operator="in" in2="blur-2"/>
      <feComposite in="SourceGraphic"/>
    </filter>
  </defs>
  <g id="undraw_marketing_v0iu" transform="translate(0 0)">
    <path id="Path_6" data-name="Path 6" d="M246.571,309.763C152.4,302.6,40.093,229.628,45.811,154.5S160.3,9.42,254.47,16.587,402.851,164.164,397.134,239.3,340.744,316.93,246.571,309.763Z" transform="translate(-45.601 -16.08)" fill="#f2f2f2"/>
    <rect id="Rectangle_9" data-name="Rectangle 9" width="178.711" height="184.927" transform="translate(0.484 27.587)" fill="#3f3d56"/>
    <path id="Path_7" data-name="Path 7" d="M136.326,98.845c-.294-.007-.589-.011-.885-.011a37.277,37.277,0,1,0,32.806,19.541l-30.864,23.195Z" transform="translate(-45.601 -16.08)" fill="none"/>
    <path id="Path_8" data-name="Path 8" d="M168.247,118.374a37.3,37.3,0,1,1-32.806-19.541c.3,0,.591,0,.885.011l-.394-15.934c-.164,0-.327-.006-.491-.006a53.209,53.209,0,1,0,45.638,25.826Z" transform="translate(-45.601 -16.08)" fill="#8a00bf"/>
    <path id="Path_9" data-name="Path 9" d="M168.247,118.374l12.831-9.643a53.193,53.193,0,0,0-45.147-25.82l.394,15.934A37.291,37.291,0,0,1,168.247,118.374Z" transform="translate(-45.601 -16.08)" fill="#8a00bf" opacity="0.3"/>
    <line id="Line_1" data-name="Line 1" x2="18.691" y2="18.867" transform="translate(116.603 166.063)" fill="none" stroke="#2f2e41" stroke-miterlimit="10" stroke-width="0.777"/>
    <line id="Line_2" data-name="Line 2" x1="12.99" y2="23.164" transform="translate(116.346 50.472)" fill="none" stroke="#2f2e41" stroke-miterlimit="10" stroke-width="0.777"/>
    <rect id="Rectangle_10" data-name="Rectangle 10" width="30.692" height="6.993" transform="translate(120.143 184.93)" fill="#f2f2f2"/>
    <rect id="Rectangle_11" data-name="Rectangle 11" width="30.692" height="6.993" transform="translate(113.15 43.515)" fill="#f2f2f2"/>
    <rect id="Rectangle_12" data-name="Rectangle 12" width="178.711" height="74.592" transform="translate(196.289 26.033)" fill="#3f3d56"/>
    <path id="Path_10" data-name="Path 10" d="M314.086,99.61h-20.2a70.656,70.656,0,0,1,0-24.087h20.2A43.341,43.341,0,0,0,314.086,99.61Z" transform="translate(-45.601 -16.08)" fill="#ff6584"/>
    <path id="Path_11" data-name="Path 11" d="M370.547,99.61h-20.2a70.656,70.656,0,0,1,0-24.087h20.2A43.341,43.341,0,0,0,370.547,99.61Z" transform="translate(-45.601 -16.08)" fill="#ff6584"/>
    <path id="Path_12" data-name="Path 12" d="M285.4,83.293H265.2a70.658,70.658,0,0,1,0-24.087h20.2a43.341,43.341,0,0,0,0,24.087Z" transform="translate(-45.601 -16.08)" fill="#8a00bf"/>
    <path id="Path_13" data-name="Path 13" d="M321.533,83.293h20.2a70.658,70.658,0,0,0,0-24.087h-20.2a43.341,43.341,0,0,1,0,24.087Z" transform="translate(-45.601 -16.08)" fill="#8a00bf"/>
    <path id="Path_14" data-name="Path 14" d="M377.089,83.293h20.2a70.657,70.657,0,0,0,0-24.087h-20.2a43.341,43.341,0,0,1,0,24.087Z" transform="translate(-45.601 -16.08)" fill="#8a00bf"/>
    <path id="Path_15" data-name="Path 15" d="M386.413,310.567c0,7.747-36.2,23.005-80.614,23.005s-80.226-15.258-80.226-23.005,35.811-5.051,80.226-5.051S386.413,302.82,386.413,310.567Z" transform="translate(-45.601 -16.08)" fill="#3f3d56"/>
    <path id="Path_16" data-name="Path 16" d="M386.413,310.567c0,7.747-36.2,23.005-80.614,23.005s-80.226-15.258-80.226-23.005,35.811-5.051,80.226-5.051S386.413,302.82,386.413,310.567Z" transform="translate(-45.601 -16.08)" fill="#44a5c6" opacity="0.1"/>
    <ellipse id="Ellipse_5" data-name="Ellipse 5" cx="80.42" cy="14.028" rx="80.42" ry="14.028" transform="translate(179.778 280.502)" fill="#3f3d56"/>
    <ellipse id="Ellipse_6" data-name="Ellipse 6" cx="62.937" cy="10.978" rx="62.937" ry="10.978" transform="translate(197.26 283.551)" fill="#fff" opacity="0.1"/>
    <path id="Path_17" data-name="Path 17" d="M278.021,227.428h-20.2a70.657,70.657,0,0,1,0-24.087h20.2a43.341,43.341,0,0,0,0,24.087Z" transform="translate(-45.601 -16.08)" fill="#8a00bf"/>
    <path id="Path_18" data-name="Path 18" d="M341.936,105.456l2.778,1.389s15.048,37.736,9.955,46.765S333.6,179.539,333.6,179.539l-3.01-8.566L342.9,144.288Z" transform="translate(-45.601 -16.08)" fill="#575a89"/>
    <path id="Path_19" data-name="Path 19" d="M341.936,105.456l2.778,1.389s15.048,37.736,9.955,46.765S333.6,179.539,333.6,179.539l-3.01-8.566L342.9,144.288Z" transform="translate(-45.601 -16.08)" opacity="0.1"/>
    <path id="Path_20" data-name="Path 20" d="M338.926,294.137s3.936,9.029,1.852,9.723a23.648,23.648,0,0,1-7.177.695c-2.547,0-5.556-.926-6.019-1.852s1.852-6.945,1.852-6.945Z" transform="translate(-45.601 -16.08)" fill="#f2f2f2"/>
    <path id="Path_21" data-name="Path 21" d="M285.911,298.767s2.547,8.1,1.389,8.566-4.862,2.547-6.945,1.852a23.956,23.956,0,0,1-6.019-3.01c-.695-.695,0-4.4,0-4.4l3.241-4.63Z" transform="translate(-45.601 -16.08)" fill="#f2f2f2"/>
    <path id="Path_22" data-name="Path 22" d="M331.518,178.382l3.319,1.158s.849,7.871-.077,10.649-3.01,22.919-1.852,27.087.463,10.881.463,10.881,6.945,22.688,5.556,27.55-1.158,11.807.232,15.28,2.547,4.862,1.852,7.64-2.084,4.167-.695,6.482,4.167,3.01,2.778,5.093-2.778,3.7-2.315,5.093-12.27,3.936-13.428,1.852c0,0,3.7-3.241,0-5.093s-2.547-8.8-2.547-8.8-6.482-26.624-6.251-28.707-10.186-34.495-10.186-34.495-15.28,46.3-16.206,48.385,1.158,7.177,0,8.566.463,4.862-1.158,6.251,2.778,6.482,0,8.334-4.167,7.64-3.936,8.8-11.575-.232-11.575-1.852a11.774,11.774,0,0,0-.926-5.788c-1.158-2.778-1.852-4.63-.926-5.556s1.621-2.084.695-5.325,1.389-13.2.695-15.048-.463-14.354-.463-14.354,2.315-18.289,1.621-21.3a7.412,7.412,0,0,1,.232-4.862c.232-1.158,1.621-13.659,2.547-15.511s2.084-33.569,7.408-35.189S331.518,178.382,331.518,178.382Z" transform="translate(-45.601 -16.08)" fill="#2f2e41"/>
    <path id="Path_23" data-name="Path 23" d="M333.37,302.471s8.334-1.389,8.8,0,1.852,12.27-1.389,12.5-8.8.926-9.723-1.158-5.325-3.473-5.325-3.473-6.482-1.852-6.482-3.936.232-5.325,1.389-5.556,5.788-2.778,5.788-3.7S333.37,302.471,333.37,302.471Z" transform="translate(-45.601 -16.08)" fill="#2f2e41"/>
    <path id="Path_24" data-name="Path 24" d="M281.281,306.175s6.019-1.852,7.408-.695,3.241,13.891,0,13.659-11.807,1.158-12.27-.695-6.714-2.315-6.714-2.315-6.714-3.241-6.251-6.714,1.158-4.63,3.936-4.862,4.862-3.473,5.093-3.7,2.273-1.924,2.525-.036S278.271,306.87,281.281,306.175Z" transform="translate(-45.601 -16.08)" fill="#2f2e41"/>
    <path id="Path_25" data-name="Path 25" d="M312.534,70.962s.926,15.511,4.4,16.9-17.595,1.389-17.595,1.389-.232-9.723-3.241-12.038S312.534,70.962,312.534,70.962Z" transform="translate(-45.601 -16.08)" fill="#a0616a"/>
    <g transform="matrix(1, 0, 0, 1, 0, 0)" filter="url(#Ellipse_7)">
      <circle id="Ellipse_7-2" data-name="Ellipse 7" cx="14.122" cy="14.122" r="14.122" transform="translate(240.54 37.52)" fill="#a0616a"/>
    </g>
    <path id="Path_27" data-name="Path 27" d="M276.651,185.79s-9.029,20.373-1.158,23.151,7.408-21.53,7.408-21.53Z" transform="translate(-45.601 -16.08)" fill="#a0616a"/>
    <path id="Path_28" data-name="Path 28" d="M307.038,70.347c-.819-1.64-2.044-3.532-3.874-3.433a6.69,6.69,0,0,0-2.549,1.049,2.607,2.607,0,0,1-2.636.146c-1.1-.788-.761-2.657-1.748-3.587-1.077-1.015-3.244-.448-3.939-1.755-.371-.7-.071-1.563-.233-2.337a8.417,8.417,0,0,1-3.337-.388,2.551,2.551,0,0,1-.887-4.524c1.423-1.294,3.482-1.542,5.238-2.327,1.4-.625,2.613-1.6,3.986-2.274a14.909,14.909,0,0,1,7.718-1.187,17.63,17.63,0,0,1,10.9,4.386c2.888,2.759,4.417,7.113,3.171,10.908-.706,2.151-2.2,3.958-3.036,6.062a21.217,21.217,0,0,0-1.058,4.447l-.586,3.6c.091-.56-1.138-1.963-1.541-2.3-.879-.729-2.158-.481-2.974-1.156C308.447,74.678,307.749,71.77,307.038,70.347Z" transform="translate(-45.601 -16.08)" fill="#2f2e41"/>
    <path id="Path_29" data-name="Path 29" d="M286.605,98.048l-3.7,2.315s-6.019,36.347-5.325,41.44-2.778,33.8-1.621,36.115,1.621,2.778,1.621,4.167-3.241,6.482-1.158,7.408,9.723,2.547,9.723,0-1.389-6.019,1.158-7.64,4.4-12.038,4.4-12.038,1.158-10.649,2.315-12.733,2.778-9.723,2.778-12.965,2.778-16.437,1.158-23.151S295.866,96.2,286.605,98.048Z" transform="translate(-45.601 -16.08)" opacity="0.1"/>
    <path id="Path_30" data-name="Path 30" d="M284.985,97.354l-3.7,2.315s-6.019,36.347-5.325,41.44-2.778,33.8-1.621,36.115,1.621,2.778,1.621,4.167-3.241,6.482-1.158,7.408,9.723,2.547,9.723,0-1.389-6.019,1.158-7.64,4.4-12.038,4.4-12.038,1.158-10.649,2.315-12.733,2.778-9.723,2.778-12.965,2.778-16.437,1.158-23.151S294.245,95.5,284.985,97.354Z" transform="translate(-45.601 -16.08)" fill="#575a89"/>
    <g transform="matrix(1, 0, 0, 1, 0, 0)" filter="url(#Path_26)">
      <path id="Path_26-2" data-name="Path 26" d="M318.091,84.389s-14.354-5.325-19.447,3.01c0,0-16.206,7.64-17.363,12.27S291,139.025,291,139.025s0,28.707-2.315,31.717-6.714,6.251-3.7,6.945,50.238,5.788,50.006,2.778-3.241-5.556,0-7.408.463-3.936,2.547-9.955,7.177-55.794,7.177-55.794-3.473-6.251-4.167-6.945S318.091,84.389,318.091,84.389Z" transform="translate(-45.6 -16.08)" fill="#575a89"/>
    </g>
  </g>
</svg>
